HIERARCHY
ROOT Hips
{
	OFFSET -0.001795 -0.223333 0.028219
	CHANNELS 6 Xposition Yposition Zposition Zrotation Yrotation Xrotation 
	JOINT LeftUpLeg
	{
		OFFSET 0.069520 -0.091406 -0.006815
		CHANNELS 3 Zrotation Yrotation Xrotation
		JOINT LeftLeg
		{
			OFFSET 0.034277 -0.375199 -0.004496
			CHANNELS 3 Zrotation Yrotation Xrotation
			JOINT LeftFoot
			{
				OFFSET -0.013596 -0.397961 -0.043693
				CHANNELS 3 Zrotation Yrotation Xrotation
				JOINT LeftToe
				{
					OFFSET 0.026358 -0.055791 0.119288
					CHANNELS 3 Zrotation Yrotation Xrotation
					End Site
					{
						OFFSET 0.000000 0.000000 0.000000
					}
				}
			}
		}
	}
	JOINT RightUpLeg
	{
		OFFSET -0.067670 -0.090522 -0.004320
		CHANNELS 3 Zrotation Yrotation Xrotation
		JOINT RightLeg
		{
			OFFSET -0.038290 -0.382569 -0.008850
			CHANNELS 3 Zrotation Yrotation Xrotation
			JOINT RightFoot
			{
				OFFSET 0.015774 -0.398415 -0.042312
				CHANNELS 3 Zrotation Yrotation Xrotation
				JOINT RightToe
				{
					OFFSET -0.025372 -0.048144 0.123348
					CHANNELS 3 Zrotation Yrotation Xrotation
					End Site
					{
						OFFSET 0.000000 0.000000 0.000000
					}
				}
			}
		}
	}
	JOINT Spine
	{
		OFFSET -0.002533 0.108963 -0.026696
		CHANNELS 3 Zrotation Yrotation Xrotation
		JOINT Spine1
		{
			OFFSET 0.005487 0.135180 0.001092
			CHANNELS 3 Zrotation Yrotation Xrotation
			JOINT Spine2
			{
				OFFSET 0.001457 0.052922 0.025425
				CHANNELS 3 Zrotation Yrotation Xrotation
				JOINT Neck
				{
					OFFSET -0.002778 0.213870 -0.042857
					CHANNELS 3 Zrotation Yrotation Xrotation
					JOINT Head
					{
						OFFSET 0.005152 0.064970 0.051349
						CHANNELS 3 Zrotation Yrotation Xrotation
						End Site
						{
							OFFSET 0.000000 0.000000 0.000000
						}
					}
				}
				JOINT LeftShoulder
				{
					OFFSET 0.078845 0.121749 -0.034090
					CHANNELS 3 Zrotation Yrotation Xrotation
					JOINT LeftArm
					{
						OFFSET 0.090977 0.030469 -0.008868
						CHANNELS 3 Zrotation Yrotation Xrotation
						JOINT LeftForeArm
						{
							OFFSET 0.259612 -0.012772 -0.027456
							CHANNELS 3 Zrotation Yrotation Xrotation
							JOINT LeftHand
							{
								OFFSET 0.249234 0.008986 -0.001171
								CHANNELS 3 Zrotation Yrotation Xrotation
								End Site
								{
									OFFSET 0.000000 0.000000 0.000000
								}
							}
						}
					}
				}
				JOINT RightShoulder
				{
					OFFSET -0.081759 0.118833 -0.038615
					CHANNELS 3 Zrotation Yrotation Xrotation
					JOINT RightArm
					{
						OFFSET -0.096012 0.032551 -0.009143
						CHANNELS 3 Zrotation Yrotation Xrotation
						JOINT RightForeArm
						{
							OFFSET -0.253742 -0.013329 -0.021401
							CHANNELS 3 Zrotation Yrotation Xrotation
							JOINT RightHand
							{
								OFFSET -0.255298 0.007772 -0.005559
								CHANNELS 3 Zrotation Yrotation Xrotation
								End Site
								{
									OFFSET 0.000000 0.000000 0.000000
								}
							}
						}
					}
				}
			}
		}
	}
}
MOTION
Frames: 9
Frame Time: 0.050000
-0.010882 0.961164 0.024392 0.561553 -6.410134 10.272541 4.599437 -0.441269 -6.535798 0.056087 0.117253 -3.623461 -0.574188 2.732295 11.806653 0.000000 0.000000 0.000000 -4.082432 0.777765 -8.140530 -7.505822 0.231368 -4.546683 3.396886 -2.541103 18.791480 0.000000 0.000000 0.000000 4.982573 0.592268 -8.548152 -0.903663 0.430684 -2.675233 -8.258708 10.040284 2.320763 17.007910 -9.092782 -14.069510 0.000000 0.000000 0.000000 -3.261565 -18.254852 5.809307 -32.962114 -36.286823 5.374487 30.567177 -65.369877 -19.439988 0.000000 0.000000 0.000000 7.486764 13.872933 6.303696 31.826118 26.311397 3.196390 -11.156396 38.099448 -1.567908 0.000000 0.000000 0.000000 
-0.011113 0.960898 0.025147 0.484285 -6.493700 9.940403 4.985323 -0.399468 -6.028748 -0.281274 0.155651 -3.899215 -0.720158 2.545058 12.039625 0.000000 0.000000 0.000000 -4.116310 0.772554 -8.106012 -7.464788 0.283896 -4.005584 3.468021 -2.365388 18.606245 0.000000 0.000000 0.000000 4.867090 0.601676 -8.611588 -0.587792 0.291177 -2.159104 -8.422805 10.596063 2.057729 17.016311 -9.091919 -13.946356 0.000000 0.000000 0.000000 -5.684784 -18.488185 5.788374 -37.574608 -32.700198 5.485897 16.626296 -63.451693 -10.056605 0.000000 0.000000 0.000000 9.572135 13.836165 6.691963 36.608121 25.537889 3.709376 -9.984396 40.779184 -1.207220 0.000000 0.000000 0.000000 
-0.011264 0.960909 0.026471 0.153835 -6.694811 10.144109 5.423090 -0.388644 -6.153676 -0.127510 0.137569 -3.754911 -0.444426 2.817654 11.476548 0.000000 0.000000 0.000000 -3.894277 0.786002 -8.223224 -7.421903 0.271306 -4.081612 3.621710 -2.015678 18.299270 0.000000 0.000000 0.000000 4.879852 0.645562 -9.049562 -0.428558 0.219385 -1.753822 -8.168792 10.659073 2.238867 16.696183 -8.767872 -14.342691 0.000000 0.000000 0.000000 -7.990139 -17.443681 5.321557 -41.292590 -28.220616 4.810956 2.420910 -59.713151 -1.084648 0.000000 0.000000 0.000000 10.776461 13.211355 6.563009 42.982046 23.388549 3.962475 -5.853425 43.092241 0.296638 0.000000 0.000000 0.000000 
-0.011267 0.960072 0.028340 -0.062900 -6.464249 10.132058 5.877129 -0.362306 -5.819753 -0.190788 0.159357 -4.222802 -0.511367 2.774415 11.626691 0.000000 0.000000 0.000000 -3.965006 0.759533 -7.881110 -6.833269 0.226825 -4.176952 3.376006 -2.133335 17.712131 0.000000 0.000000 0.000000 4.889791 0.627816 -8.884538 -0.347693 0.185027 -2.165621 -7.858341 10.697120 2.894171 16.339754 -8.251673 -15.357419 0.000000 0.000000 0.000000 -10.221024 -16.726292 4.947297 -44.507300 -22.235007 3.153285 -9.265838 -53.144664 4.995436 0.000000 0.000000 0.000000 12.214490 11.820526 6.100746 47.592373 19.148730 2.850007 1.958795 43.037943 3.238130 0.000000 0.000000 0.000000 
-0.011027 0.959969 0.030262 -0.308957 -5.874063 10.205374 6.016688 -0.363210 -5.697921 0.261023 0.132699 -4.463117 -0.752174 2.264553 11.040446 0.000000 0.000000 0.000000 -3.764214 0.765527 -7.993367 -6.703022 0.252551 -3.865560 2.943028 -2.493589 17.065360 0.000000 0.000000 0.000000 4.877931 0.636590 -9.074108 -0.261765 0.144537 -1.223963 -7.714663 9.717829 2.790978 16.147603 -8.155575 -15.374134 0.000000 0.000000 0.000000 -12.035527 -15.157629 4.282281 -46.762522 -15.113711 0.699505 -17.157966 -45.663250 7.718537 0.000000 0.000000 0.000000 12.852603 10.320038 5.313922 52.529717 14.615118 1.416481 8.045854 39.422751 4.922699 0.000000 0.000000 0.000000 
-0.010493 0.959664 0.031668 -0.393812 -5.665664 10.028678 5.839871 -0.353768 -5.277100 0.634331 0.116982 -4.761902 -0.691594 2.490227 11.355744 0.000000 0.000000 0.000000 -3.896177 0.717800 -7.373819 -6.370808 0.184012 -4.399608 2.582299 -3.047773 16.991771 0.000000 0.000000 0.000000 4.825919 0.606019 -8.783326 -0.188923 0.111132 -1.164489 -7.591842 9.203935 3.349281 15.745118 -7.885360 -15.607360 0.000000 0.000000 0.000000 -12.528089 -14.122564 3.893813 -49.048304 -8.924512 -1.820501 -18.775663 -38.868973 7.195303 0.000000 0.000000 0.000000 12.830116 8.365880 4.256444 56.760529 9.619607 -0.680336 11.023025 35.877446 5.294846 0.000000 0.000000 0.000000 
-0.009638 0.959332 0.032257 -0.463388 -5.414389 9.994556 5.756987 -0.355743 -5.199571 1.038679 0.088398 -4.777347 -0.713437 2.381236 11.017342 0.000000 0.000000 0.000000 -3.756649 0.723755 -7.482929 -6.402211 0.228101 -3.967951 2.162596 -3.473211 16.333081 0.000000 0.000000 0.000000 4.771568 0.590821 -8.676632 -0.440306 0.225718 -1.245384 -7.460701 8.616822 4.104817 16.218869 -8.150566 -16.025367 0.000000 0.000000 0.000000 -12.639074 -12.774550 3.397894 -50.168643 -4.855800 -3.642608 -19.493500 -34.242412 6.616468 0.000000 0.000000 0.000000 12.606148 6.396213 3.176868 59.728128 5.074993 -2.933284 11.973658 31.498508 4.761638 0.000000 0.000000 0.000000 
-0.008573 0.959176 0.031993 -0.382423 -5.916002 9.380329 5.291286 -0.333339 -4.725816 1.280398 0.063327 -4.652293 -0.151117 3.180727 10.640996 0.000000 0.000000 0.000000 -3.867781 0.685979 -6.989861 -6.489463 0.237763 -3.902677 2.575952 -2.738522 16.085317 0.000000 0.000000 0.000000 4.389484 0.503892 -7.726755 -0.195873 0.119083 -2.173087 -7.396238 8.590527 5.016899 15.992766 -8.061732 -16.114879 0.000000 0.000000 0.000000 -11.926482 -11.484189 2.959348 -50.505178 -2.447278 -4.809555 -19.968146 -32.086275 6.377697 0.000000 0.000000 0.000000 12.280425 5.123464 2.484027 60.831591 1.394923 -4.917925 12.561225 29.115211 4.474088 0.000000 0.000000 0.000000 
-0.007422 0.959127 0.031251 -0.438444 -6.353196 9.292493 5.349240 -0.330010 -4.833128 1.024202 0.076139 -4.534521 0.242153 3.807439 10.649202 0.000000 0.000000 0.000000 -3.761256 0.715818 -7.380638 -6.850380 0.325425 -3.205743 2.784998 -2.259955 15.636418 0.000000 0.000000 0.000000 4.496642 0.509955 -7.688688 -0.420210 0.216675 -2.215241 -7.336622 8.069886 5.467240 16.002686 -8.223556 -15.883316 0.000000 0.000000 0.000000 -11.148847 -10.526748 2.737699 -51.462827 -1.053975 -5.602110 -19.123380 -30.206560 5.843527 0.000000 0.000000 0.000000 11.739204 3.947295 1.764838 61.231103 -1.430612 -6.430467 12.976043 27.135530 4.175584 0.000000 0.000000 0.000000 
